# xmcd
#
# Track frame offsets:
# 150
# 17185
# 35235
# 58975
# 76837
# 94845
# 112532
# 130797
# 147995
# 167975
# 185620
# 204020
#
# Disc length: 2994 seconds
#
#
# Revision: 0
# Processed by: cddbd v1.5.1PL0 Copyright (c) Steve Scherf et al.
# Submitted via: FreeRIP 2.942 
#
DISCID=a00bb00c
DTITLE=Pure Charm
DYEAR=1900
DGENRE=Hip-Hop
TTITLE0=Juice Company- Mr. Big Stuff
TTITLE1=George Clinton With Dazz Band - Ain'T Nuthin'But a Jam Y'All
TTITLE2=Con Funk Shun - Throw It Up Throw It Up
TTITLE3=Blacknuss Feat. Titiyo Jennifer Brown - It Should Have Been You
TTITLE4=Mikki Bleu - Come Straight 2 da Houve
TTITLE5=Tara Thomas - When You're In Love
TTITLE6=Magnum Coltrame Price - When Love Begins
TTITLE7=Tina Hicks - Home
TTITLE8=Bamage - Love To Love
TTITLE9=Digital Underground - Walk Real Kool
TTITLE10=Juice Company - It's a Love Thing
TTITLE11=Sterling Gittens - Can'T Let Go
EXTD=
EXTT0=
EXTT1=
EXTT2=
EXTT3=
EXTT4=
EXTT5=
EXTT6=
EXTT7=
EXTT8=
EXTT9=
EXTT10=
EXTT11=
PLAYORDER=
